# Blender v2.90.1 OBJ File: ''
# www.blender.org
mtllib anvl_lphouse.mtl
o Cube
v 3.207530 15.410526 -4.592469
v 3.307530 -0.589474 -4.692469
v 3.307530 -0.589474 3.307530
v -4.592470 15.410526 -4.592469
v -4.692470 -0.589474 -4.692469
v -4.592470 15.410526 3.207530
v -4.692470 -0.589474 3.307530
v 3.307530 7.410526 -4.692469
v -4.692470 7.410526 3.307530
v -4.692470 7.410526 -4.692469
v 0.094365 15.410526 3.207530
v 3.207530 15.410526 0.094365
v 1.655767 15.410526 2.789154
v 2.789154 15.410526 1.655767
v 3.307530 7.410526 0.107530
v 0.107530 7.410526 3.307530
v 3.307530 5.810526 3.307530
v 2.878812 7.410526 1.707530
v 1.707530 7.410526 2.878812
v -4.692470 15.410526 3.307530
v -4.692470 15.410526 -4.692469
v 3.307530 15.410526 -4.692469
v 1.707530 15.410526 2.878812
v 0.107530 15.410526 3.307530
v 2.878812 15.410526 1.707530
v 3.307530 15.410526 0.107530
v -4.592470 15.310526 3.207530
v -4.592470 15.310526 -4.592469
v 3.207530 15.310526 -4.592469
v 1.655767 15.310526 2.789154
v 0.094365 15.310526 3.207530
v 2.789154 15.310526 1.655767
v 3.207530 15.310526 0.094365
v -4.692470 15.161806 3.307530
v 3.307530 15.161806 -4.692469
v -4.692470 15.161806 -4.692469
v 0.107530 15.161806 3.307530
v 1.707530 15.161806 2.878812
v 2.878812 15.161806 1.707530
v 3.307530 15.161806 0.107530
vt -4.500000 4.917534
vt -4.500000 1.778356
vt -1.990766 1.778356
vt -1.990765 4.917533
vt 5.500000 -4.500000
vt 5.500000 -1.994326
vt 4.502334 -1.358680
vt 3.005835 -1.344841
vt 3.005834 -4.476933
vt -1.994166 1.778356
vt -1.994166 -1.360822
vt 0.511668 -1.360822
vt 0.511668 1.778355
vt -1.994166 -4.500000
vt -1.994166 -1.360822
vt -4.500000 -1.360822
vt -4.500000 -4.500000
vt 3.005834 -4.476933
vt 3.005834 -1.344841
vt 1.509335 -1.358680
vt 0.511668 -1.994326
vt 0.511668 -4.500000
vt 0.995786 -1.352065
vt 3.470847 1.807327
vt 3.470847 2.457310
vt 3.020904 2.132318
vt 5.015882 -1.352066
vt 4.502334 1.676035
vt 5.015882 1.682650
vt 0.590412 1.709949
vt 0.590412 -1.324766
vt 0.995787 1.682650
vt 1.509335 1.676035
vt 3.005834 1.689875
vt -1.994166 -4.402402
vt 0.511668 -4.402402
vt -1.994166 1.680758
vt -4.500000 1.680758
vt 3.005834 1.689876
vt 3.005834 1.787253
vt 1.509335 1.773413
vt 3.052197 2.924593
vt 3.052197 2.457310
vt 3.083563 2.457310
vt 3.083563 2.924593
vt -1.994166 1.778356
vt -4.500000 1.778355
vt -1.994166 -4.500000
vt 0.511668 -4.499999
vt 4.502334 1.773412
vt 3.005834 1.787252
vt 2.989538 4.907265
vt 2.989538 1.846567
vt 3.020904 1.807327
vt 3.020904 4.946505
vt 0.543033 1.846567
vt 0.511668 1.807327
vt 1.029751 4.743095
vt 1.519492 4.907265
vt 1.515363 4.946505
vt 1.013515 4.778276
vt 0.674260 4.298357
vt 0.646138 4.318669
vt 0.543034 3.685668
vt 0.511668 3.690833
vt 0.455739 1.778356
vt 0.455739 4.839054
vt -1.990765 4.839054
vt -1.990765 2.999953
vt -1.859539 2.387264
vt -1.504048 1.942525
vt -1.014307 1.778356
vt 0.455739 4.820756
vt 0.455739 1.778356
vt 0.487033 1.778646
vt 0.487033 4.821045
vt 3.114928 3.077714
vt 3.114928 4.914322
vt 3.083563 4.914322
vt 3.083563 3.077714
vt 3.114928 2.457310
vt 3.052197 3.544997
vt 3.083563 3.544997
vt 3.052197 2.457310
vt 3.052197 5.499710
vt 3.020904 5.500000
vt 3.020904 2.457600
vt 3.052197 5.381606
vt 3.083563 5.381606
vt 0.995787 1.780028
vt 0.590413 1.807327
vt 5.015882 1.780027
vn 0.0000 -1.0000 0.0000
vn 0.0000 0.0000 1.0000
vn 0.0000 0.0000 -1.0000
vn -1.0000 0.0000 0.0000
vn 1.0000 0.0000 0.0000
vn 0.8578 0.4597 0.2299
vn 0.5265 0.6676 0.5265
vn 0.2299 0.4597 0.8578
vn 0.2588 0.0000 0.9659
vn 0.7071 0.0000 0.7071
vn 0.9659 0.0000 0.2588
vn -0.7071 0.0000 -0.7071
vn 0.0000 1.0000 0.0000
vn -0.9659 0.0000 -0.2588
vn -0.2588 0.0000 -0.9659
usemtl Material
s off
f 5/1/1 2/2/1 3/3/1 7/4/1
f 3/5/2 17/6/2 16/7/2 9/8/2 7/9/2
f 5/10/3 10/11/3 8/12/3 2/13/3
f 7/14/4 9/15/4 10/16/4 5/17/4
f 2/18/5 8/19/5 15/20/5 17/21/5 3/22/5
f 15/20/6 18/23/6 17/21/6
f 18/24/7 19/25/7 17/26/7
f 19/27/8 16/7/8 17/6/8
f 37/28/9 16/7/9 19/27/9 38/29/9
f 38/30/10 19/31/10 18/23/10 39/32/10
f 39/32/11 18/23/11 15/20/11 40/33/11
f 16/7/2 37/28/2 34/34/2 9/8/2
f 10/11/3 36/35/3 35/36/3 8/12/3
f 9/15/4 34/37/4 36/38/4 10/16/4
f 8/19/5 35/39/5 40/33/5 15/20/5
usemtl Material.001
f 35/39/5 22/40/5 26/41/5 40/33/5
f 13/42/12 14/43/12 32/44/12 30/45/12
f 34/37/4 20/46/4 21/47/4 36/38/4
f 36/35/3 21/48/3 22/49/3 35/36/3
f 37/28/2 24/50/2 20/51/2 34/34/2
f 6/52/13 4/53/13 21/54/13 20/55/13
f 4/53/13 1/56/13 22/57/13 21/54/13
f 13/58/13 11/59/13 24/60/13 23/61/13
f 14/62/13 13/58/13 23/61/13 25/63/13
f 12/64/13 14/62/13 25/63/13 26/65/13
f 11/59/13 6/52/13 20/55/13 24/60/13
f 1/56/13 12/64/13 26/65/13 22/57/13
f 29/66/13 28/67/13 27/68/13 31/69/13 30/70/13 32/71/13 33/72/13
f 1/73/2 4/74/2 28/75/2 29/76/2
f 12/77/4 1/78/4 29/79/4 33/80/4
f 14/81/14 12/77/14 33/80/14 32/44/14
f 11/82/15 13/42/15 30/45/15 31/83/15
f 4/84/5 6/85/5 27/86/5 28/87/5
f 6/88/3 11/82/3 31/83/3 27/89/3
f 25/90/11 39/32/11 40/33/11 26/41/11
f 23/91/10 38/30/10 39/32/10 25/90/10
f 24/50/9 37/28/9 38/29/9 23/92/9
